<?xml version="1.0" standalone="no"?>
<!DOCTYPE svg PUBLIC "-//W3C//DTD SVG 20010904//EN"
 "http://www.w3.org/TR/2001/REC-SVG-20010904/DTD/svg10.dtd">
<svg version="1.0" xmlns="http://www.w3.org/2000/svg"
 width="967.000000pt" height="967.000000pt" viewBox="0 0 967.000000 967.000000"
 preserveAspectRatio="xMidYMid meet">
<metadata>
Created by potrace 1.14, written by Peter Selinger 2001-2017
</metadata>
<g transform="translate(0.000000,967.000000) scale(0.100000,-0.100000)"
fill="#000000" stroke="none">
<path d="M6425 7938 c-73 -26 -153 -94 -278 -235 -25 -28 -48 -49 -51 -46 -3
4 -6 1 -6 -5 0 -6 -11 -22 -25 -36 -14 -14 -25 -34 -25 -45 0 -18 88 -255 129
-346 10 -22 22 -51 26 -65 4 -14 13 -38 20 -55 16 -36 246 -621 250 -635 1 -3
9 -22 18 -44 9 -21 17 -41 17 -43 0 -3 6 -19 14 -36 8 -18 65 -160 126 -317
135 -343 115 -293 211 -530 l78 -195 -37 -32 c-65 -56 -214 -176 -324 -263
-60 -46 -108 -87 -108 -92 0 -4 -6 -8 -14 -8 -8 0 -16 -3 -18 -8 -1 -4 -23
-23 -48 -42 -25 -19 -47 -37 -50 -40 -3 -3 -50 -41 -105 -85 -55 -44 -109 -87
-120 -96 -137 -114 -338 -269 -350 -269 -14 0 -60 57 -243 300 -56 74 -105
140 -109 145 -5 6 -24 30 -43 55 -19 25 -40 51 -47 58 -7 7 -13 16 -13 20 0 4
-16 25 -35 47 -19 22 -35 43 -35 48 0 4 -14 16 -31 26 l-32 19 -53 -29 c-124
-67 -255 -174 -270 -221 -4 -13 5 -42 24 -77 39 -74 134 -299 160 -376 19 -56
60 -157 111 -267 21 -47 35 -82 42 -103 9 -33 150 -248 179 -275 3 -3 25 -30
50 -60 25 -30 50 -59 56 -65 6 -5 37 -41 70 -80 32 -38 61 -72 64 -75 5 -4 78
-94 103 -125 4 -5 38 -50 75 -100 75 -99 86 -105 161 -84 25 8 48 14 51 14 11
2 86 36 100 45 8 5 32 19 52 30 21 11 51 34 68 50 32 31 33 44 10 95 -5 11
-36 82 -70 158 -33 75 -74 165 -92 200 -18 34 -32 64 -33 67 0 3 -10 25 -22
50 -60 126 -93 202 -93 213 0 7 -4 17 -9 22 -5 6 -12 24 -16 41 -7 35 -8 35
175 114 41 17 89 38 105 45 17 7 91 39 165 70 119 50 155 66 245 105 11 4 46
20 77 34 31 14 59 26 62 26 4 0 28 10 54 21 26 12 65 29 87 39 283 123 351
152 360 154 6 1 15 5 22 9 13 8 18 4 88 -79 28 -32 68 -79 90 -105 22 -25 49
-57 60 -70 36 -43 129 -154 140 -165 5 -6 26 -31 47 -55 20 -24 46 -55 58 -69
12 -14 40 -47 63 -74 23 -28 98 -116 167 -196 69 -80 144 -168 166 -196 23
-27 97 -114 164 -194 67 -80 141 -167 164 -194 22 -27 57 -68 77 -90 137 -157
299 -350 299 -358 0 -27 315 50 427 103 111 53 176 141 154 209 -20 64 -202
437 -297 610 -19 36 -66 124 -103 195 -75 143 -157 299 -251 475 -82 155 -240
472 -269 540 -39 92 -58 169 -67 274 -3 33 -7 63 -9 67 -9 14 35 56 121 114
49 33 91 63 94 66 3 4 34 28 70 55 86 63 160 125 244 204 91 86 96 91 96 93 0
1 4 16 9 33 6 23 5 40 -7 63 -14 29 -14 34 0 48 14 14 27 -2 131 -158 112
-170 187 -279 197 -289 3 -3 18 -23 34 -45 51 -70 116 -129 128 -117 8 8 8 23
-1 53 -15 49 -118 257 -173 347 -21 34 -38 67 -38 72 0 6 -3 10 -7 10 -5 0
-13 10 -19 23 -16 31 -42 77 -62 109 -75 117 -75 117 -58 153 9 18 16 38 16
44 0 12 -35 33 -53 30 -41 -5 -42 -4 -244 336 -10 16 -21 34 -25 40 -5 5 -32
47 -62 92 -75 113 -105 153 -144 190 -36 34 -52 35 -52 3 0 -20 50 -152 77
-205 9 -16 20 -38 25 -49 31 -61 126 -239 152 -286 17 -30 38 -68 46 -85 8
-16 21 -36 29 -44 11 -12 10 -17 -5 -28 -25 -18 -29 -17 -42 12 -6 13 -24 31
-39 39 -37 19 -75 15 -148 -14 -11 -4 -58 -20 -105 -34 -47 -15 -94 -31 -105
-36 -131 -55 -218 -96 -285 -136 -31 -18 -79 -42 -107 -53 l-50 -20 -34 21
c-105 64 -214 163 -283 258 -26 36 -56 76 -66 90 -84 113 -393 563 -425 618
-5 9 -13 19 -16 22 -3 3 -47 68 -99 145 -93 140 -154 228 -258 380 -31 44 -65
94 -76 110 -12 17 -24 32 -28 33 -5 2 -8 8 -8 14 0 5 -6 15 -12 22 -7 7 -42
54 -78 104 -40 56 -77 97 -97 107 -35 17 -94 18 -138 3z"/>
<path d="M4676 4448 c-54 -155 -235 -444 -470 -752 -50 -65 -100 -131 -111
-145 -37 -49 -228 -286 -239 -296 -97 -91 -53 -75 94 33 63 47 117 88 120 91
3 4 30 26 60 51 30 25 62 52 71 60 9 8 56 52 105 96 174 159 490 485 523 539
13 21 10 33 -34 141 -27 66 -55 135 -64 154 -8 19 -16 41 -17 49 -7 35 -21 27
-38 -21z"/>
<path d="M4690 3751 c-200 -201 -350 -345 -350 -336 0 1 -17 -14 -38 -34 -41
-39 -91 -84 -167 -146 -26 -22 -53 -45 -59 -50 -6 -6 -33 -28 -61 -50 -27 -22
-52 -43 -53 -48 -2 -4 -8 -5 -13 -1 -5 3 -9 1 -9 -4 0 -5 -26 -29 -57 -53 -32
-24 -62 -47 -68 -51 -5 -5 -44 -33 -85 -63 -41 -30 -80 -59 -87 -65 -7 -5 -16
-10 -22 -10 -5 0 -11 -4 -13 -8 -1 -5 -37 -31 -78 -58 -41 -27 -76 -52 -78
-56 -2 -5 -10 -8 -17 -8 -7 0 -15 -3 -17 -7 -3 -8 -96 -71 -151 -102 -18 -10
-63 -38 -102 -61 -122 -75 -313 -178 -319 -172 -3 3 -6 1 -6 -4 0 -6 -28 -24
-62 -40 -35 -16 -64 -32 -66 -36 -2 -5 -10 -8 -17 -8 -7 0 -40 -13 -72 -29
-128 -65 -437 -196 -478 -203 -11 -1 -22 -6 -25 -9 -4 -5 -135 -52 -150 -54
-3 0 -9 -3 -15 -6 -9 -6 -49 -17 -67 -19 -4 0 -23 -7 -42 -15 -56 -24 -425
-117 -436 -110 -6 3 -10 2 -10 -3 0 -5 -6 -9 -12 -9 -7 0 -24 -3 -38 -6 -62
-14 -76 -17 -108 -19 -18 -1 -36 -6 -38 -10 -3 -5 -9 -6 -14 -3 -4 2 -32 0
-61 -5 -61 -11 -146 -20 -232 -24 -63 -4 -88 -14 -35 -15 18 0 44 -3 58 -6 31
-7 189 -7 255 0 28 3 75 7 105 10 30 3 123 19 205 36 172 35 180 37 180 39 0
1 7 3 15 5 74 16 423 123 475 145 55 23 163 60 190 64 17 3 91 8 165 11 74 3
145 7 158 10 13 2 49 7 80 10 90 9 171 20 222 30 13 3 40 7 60 10 20 3 47 8
60 10 14 3 61 12 105 21 44 8 89 17 100 20 11 2 29 6 40 8 51 11 380 98 387
102 5 3 20 8 34 10 27 5 339 108 384 127 30 12 28 12 65 22 17 4 35 11 40 15
6 4 28 13 50 20 22 7 45 16 50 20 6 4 21 11 35 15 14 4 48 18 75 30 28 12 104
46 170 75 154 69 466 227 625 317 41 23 234 139 268 160 l23 14 -23 37 c-12
20 -57 86 -101 145 -43 59 -80 114 -84 122 -4 13 -9 12 -32 -3 -14 -11 -33
-22 -41 -25 -8 -4 -28 -16 -45 -27 -29 -19 -106 -64 -146 -85 -11 -5 -19 -13
-19 -17 0 -5 -4 -8 -9 -8 -5 0 -55 -27 -111 -60 -56 -33 -105 -60 -109 -60 -5
0 -19 -8 -32 -18 -21 -17 -187 -108 -246 -136 -13 -6 -23 -14 -23 -18 0 -5 -7
-8 -15 -8 -9 0 -32 -10 -53 -23 -20 -13 -89 -50 -152 -82 -63 -31 -121 -62
-127 -67 -7 -6 -13 -7 -13 -2 0 5 -4 5 -8 -1 -4 -5 -47 -30 -97 -53 -49 -24
-97 -48 -105 -53 -8 -5 -26 -14 -40 -20 -14 -5 -47 -21 -75 -34 -98 -45 -221
-101 -325 -145 -81 -34 -249 -100 -265 -104 -5 -2 -23 -8 -38 -14 -16 -7 -34
-12 -42 -12 -8 0 -16 -4 -19 -9 -3 -4 -27 -14 -53 -21 -27 -7 -54 -17 -60 -23
-7 -5 -13 -7 -13 -4 0 3 -25 -3 -56 -14 -31 -11 -63 -18 -71 -15 -8 3 -11 1
-8 -4 5 -9 -16 -14 -52 -13 -7 1 -13 -3 -13 -7 0 -9 -110 -34 -117 -26 -4 3
-1 6 6 6 6 0 50 18 97 40 47 22 87 40 89 40 4 0 121 53 235 107 125 59 588
290 700 349 230 122 529 286 731 402 20 11 47 26 60 34 13 7 26 15 29 18 3 3
16 11 30 18 31 16 26 13 249 147 100 61 199 120 219 131 20 12 38 27 40 33 3
9 -244 437 -267 462 -3 4 -107 -95 -231 -220z"/>
<path d="M309 3465 c11 -42 67 -169 104 -235 35 -64 146 -235 173 -267 10 -12
30 -37 44 -55 27 -35 192 -204 250 -254 61 -53 186 -144 198 -144 7 0 12 -4
12 -10 0 -5 4 -10 9 -10 5 0 38 -16 72 -36 35 -19 68 -36 74 -37 5 -1 12 -5
15 -8 6 -7 139 -58 225 -87 89 -30 266 -72 370 -87 72 -11 89 -13 170 -20 44
-4 87 -9 96 -10 9 -2 22 1 30 6 10 6 7 9 -13 9 -16 0 -28 5 -28 11 0 5 -4 7
-10 4 -5 -3 -52 7 -102 23 -219 70 -431 168 -623 290 -96 61 -120 77 -123 85
-2 4 -10 7 -17 7 -8 0 -21 10 -29 22 -9 12 -16 19 -16 14 0 -7 -98 59 -110 75
-3 3 -27 23 -55 43 -211 160 -537 473 -704 676 l-20 25 8 -30z"/>
<path d="M130 2630 c0 -5 109 -115 158 -160 114 -105 325 -234 492 -302 82
-34 235 -84 280 -92 203 -38 437 -41 625 -10 17 3 41 7 55 9 90 13 235 50 340
86 l55 20 -45 -6 c-125 -15 -164 -17 -275 -18 -108 0 -249 8 -315 18 -14 2
-45 6 -70 9 -38 5 -139 25 -260 51 -80 18 -328 91 -380 112 -8 3 -19 7 -25 8
-55 13 -341 135 -502 215 -73 37 -133 64 -133 60z"/>
</g>
</svg>
